<svg xmlns="http://www.w3.org/2000/svg" height="24" viewBox="0 -960 960 960" width="24"><path d="M440-197.5q54 0 102-22.5t83.5-63q-128-8-215.5-98.5T322.5-600q0-14.197 1.5-27.849 1.5-13.651 3.5-27.151-59 33-94.5 90.258Q197.5-507.483 197.5-440q0 101.042 70.729 171.771Q338.958-197.5 440-197.5Zm-.095 75Q307.5-122.5 215-215t-92.5-225q0-132.5 92.5-225t225-92.5q3.75 0 7.5.25t7.5.25q-27 33-42.25 73.25T397.5-600q0 101.042 70.729 171.771Q538.958-357.5 640-357.5q29.794 0 58.147-7 28.353-7 54.353-21-19 115-107.5 189t-205.095 74Zm115.595-400 126.5-355h76l126.5 355h-70.154l-25.846-72h-137l-25.846 72H555.5Zm115-129h99l-49.5-157-49.5 157Zm-260 269Z"/></svg>