<svg xmlns="http://www.w3.org/2000/svg" height="20" viewBox="0 -960 960 960" width="20"><path d="M231.448-171.271q-25.046 0-42.612-17.565-17.565-17.566-17.565-42.612v-497.104q0-25.046 17.565-42.612 17.566-17.565 42.673-17.565h230.682v47.96H231.539q-4.615 0-8.462 3.846-3.846 3.847-3.846 8.462v496.922q0 4.615 3.846 8.462 3.847 3.846 8.462 3.846h496.922q4.615 0 8.462-3.846 3.846-3.847 3.846-8.462v-230.652h47.96v230.682q0 25.107-17.565 42.673-17.566 17.565-42.612 17.565H231.448Zm157.629-183.384-34.422-34.422 351.884-351.692h-137v-47.96h219.19v219.19h-47.96v-137L389.077-354.655Z"/></svg>