<svg xmlns="http://www.w3.org/2000/svg" height="24" viewBox="0 -960 960 960" width="24"><path d="M442.5-796v-116h75v116h-75Zm0 747v-116h75v116h-75Zm353-394v-75h116v75h-116Zm-747 0v-75h116v75h-116Zm694-247-53-53 68-70 55 55-70 68Zm-540 542-55-55 70-68 53 53-68 70Zm555 0-68-70 53-53 70 68-55 55Zm-540-542-70-68 55-55 68 70-53 53Zm262.412 442Q383-248 315.25-315.838t-67.75-164.75q0-96.912 67.838-164.662T480.088-713Q577-713 644.75-645.162t67.75 164.75q0 96.912-67.838 164.662T479.912-248Zm.088-75q65.5 0 111.5-46t46-111.5q0-65.5-46-111.5T480-638q-65.5 0-111.5 46t-46 111.5q0 65.5 46 111.5T480-323Zm0-157.5Z"/></svg>